<svg xmlns="http://www.w3.org/2000/svg" viewBox="0 0 1440 320"><path fill="#0099ff" fill-opacity="1" d="M0,32L30,58.7C60,85,120,139,180,170.7C240,203,300,213,360,192C420,171,480,117,540,90.7C600,64,660,64,720,64C780,64,840,64,900,96C960,128,1020,192,1080,218.7C1140,245,1200,235,1260,197.3C1320,160,1380,96,1410,64L1440,32L1440,320L1410,320C1380,320,1320,320,1260,320C1200,320,1140,320,1080,320C1020,320,960,320,900,320C840,320,780,320,720,320C660,320,600,320,540,320C480,320,420,320,360,320C300,320,240,320,180,320C120,320,60,320,30,320L0,320Z"></path></svg>