        <svg xmlns="http://www.w3.org/2000/svg" viewBox="0 0 1440 320">
          <path
            fill="#0099ff"
            fill-opacity="1"
            d="M0,224L30,224C60,224,120,224,180,197.3C240,171,300,117,360,122.7C420,128,480,192,540,208C600,224,660,192,720,197.3C780,203,840,245,900,266.7C960,288,1020,288,1080,245.3C1140,203,1200,117,1260,96C1320,75,1380,117,1410,138.7L1440,160L1440,320L1410,320C1380,320,1320,320,1260,320C1200,320,1140,320,1080,320C1020,320,960,320,900,320C840,320,780,320,720,320C660,320,600,320,540,320C480,320,420,320,360,320C300,320,240,320,180,320C120,320,60,320,30,320L0,320Z"
          ></path>
        </svg>